<mxfile host="app.diagrams.net" agent="Mozilla/5.0 (Macintosh; Intel Mac OS X 10_15_7) AppleWebKit/537.36 (KHTML, like Gecko) Chrome/133.0.0.0 Safari/537.36" version="26.0.16">
  <diagram name="第 1 页" id="Obe_Nl5scmcTm58PLm0D">
    <mxGraphModel dx="1306" dy="774" grid="1" gridSize="10" guides="1" tooltips="1" connect="1" arrows="1" fold="1" page="1" pageScale="1" pageWidth="3300" pageHeight="4681" math="0" shadow="0">
      <root>
        <mxCell id="0" />
        <mxCell id="1" parent="0" />
        <mxCell id="Svj-aYypacBTaYtRlZ7_-13" style="edgeStyle=orthogonalEdgeStyle;rounded=0;orthogonalLoop=1;jettySize=auto;html=1;exitX=1;exitY=0.5;exitDx=0;exitDy=0;entryX=0;entryY=0.5;entryDx=0;entryDy=0;" edge="1" parent="1" source="Svj-aYypacBTaYtRlZ7_-4" target="Svj-aYypacBTaYtRlZ7_-5">
          <mxGeometry relative="1" as="geometry" />
        </mxCell>
        <mxCell id="Svj-aYypacBTaYtRlZ7_-4" value="Mates" style="ellipse;whiteSpace=wrap;html=1;aspect=fixed;" vertex="1" parent="1">
          <mxGeometry x="250" y="405" width="80" height="80" as="geometry" />
        </mxCell>
        <mxCell id="Svj-aYypacBTaYtRlZ7_-5" value="" style="rounded=1;whiteSpace=wrap;html=1;" vertex="1" parent="1">
          <mxGeometry x="470" y="320" width="280" height="250" as="geometry" />
        </mxCell>
        <mxCell id="Svj-aYypacBTaYtRlZ7_-7" style="edgeStyle=orthogonalEdgeStyle;rounded=0;orthogonalLoop=1;jettySize=auto;html=1;exitX=0.5;exitY=1;exitDx=0;exitDy=0;" edge="1" parent="1" source="Svj-aYypacBTaYtRlZ7_-6" target="Svj-aYypacBTaYtRlZ7_-5">
          <mxGeometry relative="1" as="geometry" />
        </mxCell>
        <mxCell id="Svj-aYypacBTaYtRlZ7_-6" value="ExternalService" style="rounded=1;whiteSpace=wrap;html=1;" vertex="1" parent="1">
          <mxGeometry x="550" y="180" width="120" height="60" as="geometry" />
        </mxCell>
        <mxCell id="Svj-aYypacBTaYtRlZ7_-9" value="trigger_batch_noti,&lt;br&gt;schedule_noti,&lt;br&gt;trigger_noti_by_noticode,&lt;div&gt;trigger_noti&lt;/div&gt;" style="text;html=1;align=center;verticalAlign=middle;resizable=0;points=[];autosize=1;strokeColor=none;fillColor=none;" vertex="1" parent="1">
          <mxGeometry x="600" y="240" width="160" height="70" as="geometry" />
        </mxCell>
        <mxCell id="Svj-aYypacBTaYtRlZ7_-10" value="TaskStatsMap" style="whiteSpace=wrap;html=1;aspect=fixed;" vertex="1" parent="1">
          <mxGeometry x="510" y="345" width="200" height="200" as="geometry" />
        </mxCell>
        <mxCell id="Svj-aYypacBTaYtRlZ7_-11" value="DB" style="shape=cylinder3;whiteSpace=wrap;html=1;boundedLbl=1;backgroundOutline=1;size=15;" vertex="1" parent="1">
          <mxGeometry x="980" y="385" width="95" height="120" as="geometry" />
        </mxCell>
        <mxCell id="Svj-aYypacBTaYtRlZ7_-15" value="" style="shape=hexagon;perimeter=hexagonPerimeter2;whiteSpace=wrap;html=1;fixedSize=1;" vertex="1" parent="1">
          <mxGeometry x="550" y="670" width="120" height="80" as="geometry" />
        </mxCell>
      </root>
    </mxGraphModel>
  </diagram>
</mxfile>
